<?xml version="1.0" encoding="UTF-8" standalone="no"?>
<svg xmlns="http://www.w3.org/2000/svg" xmlns:xlink="http://www.w3.org/1999/xlink" width="63.000px" height="57.750px" viewBox="0 0 800100.000 733425.000">
<path d="M 219075.000 295275.000 C 176991.000 295275.000 142875.000 261159.000 142875.000 219075.000 C 142875.000 176991.000 176991.000 142875.000 219075.000 142875.000 C 261159.000 142875.000 295275.000 176991.000 295275.000 219075.000 C 295275.000 261159.000 261159.000 295274.000 219075.000 295275.000 Z M 238125.000 0.000 L 200025.000 0.000 L 200025.000 104775.000 L 238125.000 104775.000 Z M 238125.000 333375.000 L 200025.000 333375.000 L 200025.000 438150.000 L 238125.000 438150.000 Z M 104775.000 200025.000 L 0.000 200025.000 L 0.000 238125.000 L 104775.000 238125.000 Z M 438150.000 200025.000 L 333375.000 200025.000 L 333375.000 238125.000 L 438150.000 238125.000 Z M 151721.000 124780.000 L 77633.000 50695.000 L 50695.000 77637.000 L 124783.000 151724.000 Z M 286429.000 313370.000 L 360517.000 387455.000 L 387455.000 360513.000 L 313367.000 286426.000 Z M 50695.000 360513.000 L 77633.000 387455.000 L 151721.000 313370.000 L 124783.000 286426.000 Z M 387455.000 77637.000 L 360517.000 50695.000 L 286429.000 124780.000 L 313367.000 151724.000 Z M 714375.000 695325.000 L 714375.000 530619.000 L 779897.000 465092.000 L 752961.000 438150.000 L 581025.000 610095.000 L 607963.000 637032.000 L 676275.000 568719.000 L 676275.000 695325.000 L 533400.000 695325.000 L 533400.000 530619.000 L 598926.000 465092.000 L 571989.000 438150.000 L 400050.000 610095.000 L 426988.000 637032.000 L 495300.000 568719.000 L 495300.000 695325.000 L 352425.000 695325.000 L 352425.000 530619.000 L 417951.000 465092.000 L 391014.000 438150.000 L 219075.000 610095.000 L 246013.000 637032.000 L 314325.000 568719.000 L 314325.000 695325.000 L 209550.000 695325.000 L 209550.000 733425.000 L 800100.000 733425.000 L 800100.000 695325.000 Z" transform="matrix(1.000000 0.000000 0.000000 1.000000 0.000000 0.000000)" fill="#000000" stroke="none" />
</svg>
