<?xml version="1.0" encoding="UTF-8" standalone="no"?>
<svg xmlns="http://www.w3.org/2000/svg" xmlns:xlink="http://www.w3.org/1999/xlink" width="1.000px" height="1.000px" viewBox="0 0 204.000 195.000">
<path d="M 75.000 43.000 C 75.000 42.000 75.000 41.000 75.000 40.000 C 75.000 39.000 75.000 38.000 75.000 37.000 C 77.000 36.000 77.000 36.000 77.000 36.000 C 84.000 32.000 84.000 32.000 84.000 32.000 C 80.000 26.000 80.000 26.000 80.000 26.000 C 73.000 14.000 73.000 14.000 73.000 14.000 C 69.000 8.000 69.000 8.000 69.000 8.000 C 63.000 12.000 63.000 12.000 63.000 12.000 C 61.000 12.000 61.000 12.000 61.000 12.000 C 60.000 11.000 58.000 10.000 56.000 10.000 C 56.000 0.000 56.000 0.000 56.000 0.000 C 28.000 0.000 28.000 0.000 28.000 0.000 C 28.000 10.000 28.000 10.000 28.000 10.000 C 26.000 10.000 24.000 11.000 23.000 12.000 C 21.000 12.000 21.000 12.000 21.000 12.000 C 15.000 8.000 15.000 8.000 15.000 8.000 C 11.000 14.000 11.000 14.000 11.000 14.000 C 4.000 26.000 4.000 26.000 4.000 26.000 C 0.000 32.000 0.000 32.000 0.000 32.000 C 7.000 36.000 7.000 36.000 7.000 36.000 C 9.000 37.000 9.000 37.000 9.000 37.000 C 9.000 38.000 9.000 39.000 9.000 40.000 C 9.000 41.000 9.000 42.000 9.000 43.000 C 7.000 44.000 7.000 44.000 7.000 44.000 C 0.000 48.000 0.000 48.000 0.000 48.000 C 4.000 54.000 4.000 54.000 4.000 54.000 C 11.000 66.000 11.000 66.000 11.000 66.000 C 15.000 72.000 15.000 72.000 15.000 72.000 C 21.000 68.000 21.000 68.000 21.000 68.000 C 23.000 68.000 23.000 68.000 23.000 68.000 C 24.000 69.000 26.000 70.000 28.000 70.000 C 28.000 80.000 28.000 80.000 28.000 80.000 C 56.000 80.000 56.000 80.000 56.000 80.000 C 56.000 70.000 56.000 70.000 56.000 70.000 C 58.000 70.000 60.000 69.000 61.000 68.000 C 63.000 68.000 63.000 68.000 63.000 68.000 C 69.000 72.000 69.000 72.000 69.000 72.000 C 73.000 66.000 73.000 66.000 73.000 66.000 C 80.000 54.000 80.000 54.000 80.000 54.000 C 84.000 48.000 84.000 48.000 84.000 48.000 C 77.000 44.000 77.000 44.000 77.000 44.000 L 75.000 43.000 Z M 67.000 40.000 C 67.000 42.000 67.000 45.000 67.000 47.000 C 73.000 50.000 73.000 50.000 73.000 50.000 C 66.000 62.000 66.000 62.000 66.000 62.000 C 60.000 58.000 60.000 58.000 60.000 58.000 C 57.000 61.000 53.000 64.000 48.000 65.000 C 48.000 72.000 48.000 72.000 48.000 72.000 C 36.000 72.000 36.000 72.000 36.000 72.000 C 36.000 65.000 36.000 65.000 36.000 65.000 C 31.000 64.000 27.000 61.000 24.000 58.000 C 17.000 62.000 17.000 62.000 17.000 62.000 C 11.000 50.000 11.000 50.000 11.000 50.000 C 17.000 47.000 17.000 47.000 17.000 47.000 C 16.000 42.000 16.000 38.000 17.000 33.000 C 11.000 30.000 11.000 30.000 11.000 30.000 C 17.000 18.000 17.000 18.000 17.000 18.000 C 24.000 22.000 24.000 22.000 24.000 22.000 C 27.000 19.000 31.000 16.000 36.000 15.000 C 36.000 8.000 36.000 8.000 36.000 8.000 C 48.000 8.000 48.000 8.000 48.000 8.000 C 48.000 15.000 48.000 15.000 48.000 15.000 C 53.000 16.000 57.000 19.000 60.000 22.000 C 67.000 18.000 67.000 18.000 67.000 18.000 C 73.000 30.000 73.000 30.000 73.000 30.000 C 67.000 33.000 67.000 33.000 67.000 33.000 C 67.000 35.000 68.000 38.000 68.000 40.000 L 67.000 40.000 Z" transform="matrix(2.428571 0.000000 0.000000 2.437500 0.000000 0.000000)" fill="#FFFFFF" stroke="none" />
</svg>
