<?xml version="1.0" encoding="UTF-8" standalone="no"?>
<svg xmlns="http://www.w3.org/2000/svg" xmlns:xlink="http://www.w3.org/1999/xlink" width="40.500px" height="42.000px" viewBox="0 0 514350.000 533400.000">
<path d="M 0.000 533400.000 L 0.000 0.000 L 295275.000 0.000 L 390525.000 95250.000 L 390525.000 533400.000 Z M 333375.000 95250.000 L 57150.000 95250.000 L 57150.000 133350.000 L 333375.000 133350.000 Z M 333375.000 171450.000 L 57150.000 171450.000 L 57150.000 209550.000 L 333375.000 209550.000 Z M 333375.000 247650.000 L 57150.000 247650.000 L 57150.000 285750.000 L 333375.000 285750.000 Z M 333375.000 323850.000 L 57150.000 323850.000 L 57150.000 361950.000 L 333375.000 361950.000 Z M 209550.000 400050.000 L 57150.000 400050.000 L 57150.000 438150.000 L 209550.000 438150.000 Z M 514350.000 152400.000 L 457200.000 152400.000 L 457200.000 457200.000 L 514350.000 457200.000 Z M 514350.000 476250.000 L 457200.000 476250.000 L 485775.000 533400.000 Z" transform="matrix(1.000000 0.000000 0.000000 1.000000 0.000000 0.000000)" fill="#000000" stroke="none" />
</svg>
