<?xml version="1.0" encoding="UTF-8" standalone="no"?>
<svg xmlns="http://www.w3.org/2000/svg" xmlns:xlink="http://www.w3.org/1999/xlink" width="59.375px" height="113.000px" viewBox="0 0 754063.000 1435100.000">
<path d="M 302.000 490.000 C 265.000 491.000 228.000 483.000 194.000 463.000 C 99.000 408.000 67.000 287.000 121.000 192.000 C 153.000 137.000 207.000 103.000 265.000 95.000 C 307.000 47.000 307.000 47.000 307.000 47.000 C 265.000 0.000 265.000 0.000 265.000 0.000 C 116.000 14.000 0.000 139.000 0.000 291.000 C 0.000 453.000 131.000 584.000 293.000 584.000 C 297.000 584.000 301.000 584.000 304.000 584.000 C 261.000 535.000 261.000 535.000 261.000 535.000 L 302.000 490.000 Z" transform="matrix(2456.231270 0.000000 0.000000 2457.363014 0.000000 0.000000)" fill="#DFDFD9" stroke="none" />
</svg>
